<?xml version="1.0" encoding="utf-8"?>
<!-- Generator: Adobe Illustrator 27.9.0, SVG Export Plug-In . SVG Version: 6.00 Build 0)  -->
<svg version="1.1" id="Layer_1" xmlns="http://www.w3.org/2000/svg" xmlns:xlink="http://www.w3.org/1999/xlink" x="0px" y="0px"
	 viewBox="0 0 1956.29 861.34" style="enable-background:new 0 0 1956.29 861.34;" xml:space="preserve">
<g>
	<path d="M730.88,245.99c11.48,0,22.63,0,33.73,0c0.77,0.98,0.36,1.63-0.43,2.21c-0.84,0.62-1.71,1.22-2.5,1.89
		c-5.48,4.65-8.43,10.56-8.75,17.75c-0.06,1.39-0.03,2.79-0.03,4.19c0,54.78,0,109.57,0,164.35c0,1.22-0.03,2.44,0.02,3.66
		c0.31,7.97,3.39,14.5,9.98,19.22c0.91,0.65,2.36,0.94,2.04,2.57c-0.3,0.21-0.55,0.55-0.81,0.56c-8.39,0.45-41.07,0.23-44.94-0.28
		c-0.63-1.01,0.04-1.59,0.73-2.14c1.09-0.87,2.27-1.63,3.3-2.57c4.84-4.46,7.62-9.9,7.67-16.58c0.01-1.4,0.02-2.79,0.02-4.19
		c0-55.48,0-110.96-0.01-166.44c0-1.81,0.24-3.67-0.57-6.41c-4.24,8.82-7.31,17.09-10.78,25.18c-3.57,8.33-7,16.72-10.49,25.09
		c-3.42,8.2-6.83,16.41-10.25,24.62c-3.42,8.21-6.82,16.42-10.25,24.62c-3.42,8.2-6.86,16.4-10.29,24.6
		c-3.49,8.36-6.98,16.73-10.47,25.09c-3.43,8.2-6.86,16.4-10.28,24.6c-3.42,8.19-6.84,16.37-10.2,24.43
		c-2.36,0.88-4.41,0.36-6.67,0.45c-15.46-29.66-30.83-59.19-46.23-88.7c-15.35-29.43-30.64-58.89-46.98-88.04
		c-0.07,1.66-0.2,3.32-0.2,4.98c-0.05,18.84-0.07,37.68-0.11,56.53c-0.05,27.04-0.14,54.08-0.11,81.13c0,3.29,0.15,6.68,0.97,9.84
		c2.29,8.85,7.7,15.48,15.46,20.28c1.25,0.78,3.12,0.89,3.65,3.06c-0.54,0.25-1.1,0.71-1.67,0.73c-3.14,0.09-6.28,0.08-9.43,0.08
		c-10.48,0.01-20.95,0.02-31.43-0.02c-1.28-0.01-2.85,0.57-3.87-1.37c0.73-0.58,1.44-1.27,2.27-1.78c3.31-2,6.33-4.34,8.91-7.23
		c5.7-6.39,8.43-13.94,8.81-22.42c0.06-1.39,0.05-2.79,0.05-4.19c0-49.72-0.04-99.45,0.08-149.17c0.01-4.44-1.2-8.14-3.64-11.69
		c-4.34-6.3-9.87-11.25-16.55-14.94c-1.5-0.83-2.99-1.67-4.95-2.77c0.9-0.6,1.35-1.1,1.89-1.22c0.84-0.19,1.73-0.15,2.6-0.15
		c9.43-0.01,18.86-0.01,28.29,0.01c1.21,0,2.42,0.16,3.94,0.27c0.98,1.76,2.03,3.54,2.99,5.37c25.98,49.96,51.95,99.93,77.92,149.9
		c5.23,10.06,10.45,20.11,15.72,30.15c0.61,1.17,0.86,2.72,2.86,3.23C678.18,371.56,704.53,308.79,730.88,245.99z"/>
	<path d="M1703.64,359.19c-6.45-0.19-12.54-0.08-18.62-0.1c-6.29-0.02-12.57,0-18.86,0c-6.11,0-12.22,0-18.34,0
		c-6.29,0-12.57,0.05-18.86-0.01c-6.07-0.06-12.16,0.32-18.58-0.3c-0.09-1.87-0.18-3.54-0.28-5.5c1.41-0.21,2.56-0.52,3.72-0.53
		c6.11-0.05,12.22-0.02,18.34-0.02c28.99,0,57.98,0,86.96,0c1.91,0,3.82,0,5.98,0c0.22,1.41,0.56,2.56,0.57,3.72
		c0.06,5.76,0.03,11.52,0.03,17.27c0,27.05,0.01,54.09-0.03,81.14c0,1.82,0.54,3.79-0.91,5.84c-6.09-6.5-11.06-13.67-17.08-20.29
		c-1.08,0.63-2.16,1.13-3.09,1.82c-13.5,9.98-28.41,16.95-44.75,20.79c-13.5,3.18-27.13,4.35-41.03,3.01
		c-12.79-1.24-25.15-3.92-36.87-9.13c-28.65-12.75-47.23-34.54-56.8-64.16c-4.82-14.93-6.36-30.31-5.74-45.96
		c0.62-15.5,3.58-30.5,9.98-44.64c14.07-31.05,37.76-50.71,71.29-57.22c39.82-7.74,75.71,1.9,107.58,26.82
		c0.96,0.75,1.87,1.57,2.78,2.39c0.38,0.35,0.69,0.78,1.22,1.4c-0.67,4.99-1.34,10.16-2.08,15.32c-1.31,9.15-2.66,18.29-4,27.43
		c-0.13,0.86-0.25,1.73-0.47,2.57c-0.35,1.34-0.79,1.48-3.57,1.14c-0.05-1.66-0.11-3.38-0.16-5.09c-0.3-9.49-1.79-18.75-5.5-27.54
		c-7.57-17.94-20.92-29.69-39.1-36.19c-10.84-3.87-22.06-4.89-33.5-4.5c-12.58,0.43-24.51,3.27-35.66,9.12
		c-12.51,6.57-22.25,16.13-29.75,28.04c-7.44,11.82-11.94,24.75-14.62,38.39c-2.72,13.81-3.08,27.75-1.91,41.69
		c1.34,15.93,5.23,31.27,12.34,45.68c6.59,13.35,15.45,24.87,27.64,33.62c11.74,8.42,24.86,13,39.22,14.61
		c14.54,1.64,28.53-0.12,42.09-5.44c11.62-4.56,21.41-11.64,28.95-21.67c7.7-10.25,11.42-21.94,11.75-34.61
		c0.31-12.03,0.07-24.08,0.06-36.12C1704,361.28,1703.83,360.6,1703.64,359.19z"/>
	<path d="M502.82,462.49c-17.08,0-34.17,0-51.25-0.02c-0.46,0-0.92-0.25-1.22-0.34c-0.58-1.03,0-1.46,0.54-1.89
		c0.27-0.22,0.57-0.41,0.87-0.58c6.8-3.89,7.59-9.95,6.06-16.22c-0.45-1.85-1.17-3.66-1.97-5.39
		c-6.06-13.14-12.15-26.27-18.29-39.37c-0.88-1.88-1.9-3.76-3.17-5.4c-15.13-19.54-34.47-32.85-58.5-39.03
		c-8.38-2.16-16.9-2.26-25.51-0.38c-0.4,0.78-0.86,1.51-1.18,2.31c-9.2,23.54-18.38,47.09-27.55,70.64
		c-2.11,5.42-3.2,11.03-2.98,16.88c0.26,6.63,2.36,12.28,8.13,16.12c0.66,0.44,1.57,0.9,1.04,2.25c-0.31,0.11-0.76,0.38-1.21,0.4
		c-11.54,0.45-40.32,0.19-44.42-0.37c-0.45-0.76-0.14-1.32,0.54-1.69c0.76-0.42,1.56-0.76,2.35-1.13
		c11.29-5.31,19.77-13.58,25.59-24.56c1.47-2.77,2.82-5.62,3.95-8.54c8.63-22.45,17.2-44.93,25.77-67.4
		c0.43-1.13,0.75-2.3,1.19-3.65c-3-0.42-5.69,0.49-8.32,1.12c-15.76,3.74-31.51,7.53-47.21,11.51c-13.69,3.47-27.44,6.66-41.42,8.65
		c-11.61,1.65-23.32,2.25-35,1.18c-9.58-0.88-18.84-3.42-27.78-7.05c-23.41-9.49-42.5-24.48-57.29-44.94
		c-1.11-1.54-2.13-3.16-3.46-5.15c0.51-0.59,0.94-1.07,1.69-1.94c1.38,1.85,2.32,3.02,3.17,4.26
		c12.73,18.53,29.62,31.79,50.59,39.86c11.36,4.37,23.14,6.29,35.33,6.13c15.27-0.19,30.21-2.65,45-6.13
		c15.6-3.67,31.11-7.71,46.7-11.4c13.42-3.17,27-5.44,40.83-5.92c0.34-0.01,0.67-0.15,1.46-0.34c6.51-16.22,12.75-32.83,19.17-49.36
		c6.37-16.41,12.71-32.83,19.07-49.27c2.11-0.81,4.16-0.54,6.49-0.27c0.88,1.85,1.79,3.71,2.66,5.58
		c28.67,61.66,57.36,123.31,85.97,184.99c3.92,8.45,9.36,15.5,17.28,20.5c1.76,1.11,3.69,1.97,5.49,3.03
		c0.51,0.3,0.85,0.88,1.26,1.33C503.14,461.83,502.98,462.16,502.82,462.49z M380.3,276.96c-2.61,4.08-15.21,35.51-25.99,64.51
		c-0.41,1.11-0.66,2.27-0.98,3.41c5.93,0.92,11.67,1.48,17.24,2.77c5.58,1.29,11.11,2.99,16.43,5.09
		c5.16,2.04,10.22,4.51,14.98,7.34c4.93,2.93,9.64,6.3,14.1,9.91c4.35,3.51,8.26,7.56,12.53,11.53c0.05-0.7,0.21-1.1,0.08-1.36
		C412.66,345.94,396.61,311.72,380.3,276.96z"/>
	<path d="M1471.74,426.05c0.16-2.6,0.32-3.96,0.32-5.32c0.01-46.24,0.03-92.48-0.03-138.71c0-3.47-0.19-7.03-0.96-10.39
		c-2.25-9.81-7.78-17.39-16.43-22.65c-1.6-0.98-1.59-0.99-2.72-2.66c0.23-0.22,0.45-0.64,0.68-0.65
		c14.48-0.11,28.97-0.19,43.45-0.24c0.63,0,1.27,0.3,2.38,0.59c-0.58,0.82-0.83,1.43-1.29,1.78c-2.76,2.11-5.79,3.93-8.32,6.29
		c-5.82,5.45-9.16,12.33-9.97,20.21c-0.61,5.89-0.79,11.84-0.8,17.76c-0.09,48.85-0.11,97.71-0.14,146.56
		c0,6.46,0.02,12.91-0.01,19.37c-0.01,1.36-0.2,2.72-0.32,4.29c-1.95,0-3.65,0-5.67,0c-0.75-0.84-1.72-1.82-2.57-2.89
		c-47.28-59.83-94.55-119.67-141.85-179.48c-1.13-1.43-1.95-3.24-3.66-3.96c-1.13,0.51-0.87,1.32-0.88,1.94
		c-0.04,4.54-0.03,9.07-0.03,13.61c0,44.49,0.01,88.99-0.02,133.48c0,4.38,0.19,8.74,1.34,12.97c2.39,8.78,7.43,15.66,15.07,20.65
		c1.26,0.83,2.98,1.16,3.56,2.83c-0.46,1.45-1.66,1.07-2.63,1.08c-9.78,0.03-19.56,0.02-29.34,0.02c-3.67,0-7.33,0.01-11-0.01
		c-0.99-0.01-1.99-0.13-2.7-0.18c-0.74-1.15-0.27-1.7,0.29-2.11c1.27-0.92,2.63-1.72,3.88-2.67c9.63-7.31,14.72-17,15.12-29.1
		c0.05-1.39,0.01-2.79,0.01-4.19c0-50.6,0-101.2,0-151.8c0-1.92,0-3.83,0-5.98c-3.56-4.45-7.75-8.33-12.43-11.72
		c-4.44-3.22-9.4-5.55-14.48-7.74c1.16-2.05,2.51-1.63,3.63-1.63c8.03-0.04,16.06-0.02,24.1-0.03c1.92,0,3.84-0.01,5.76,0
		c6.24,0.03,5.15-0.34,8.75,4.13c5.68,7.07,11.26,14.23,16.89,21.35c39.72,50.24,79.43,100.48,119.16,150.71
		C1468.85,422.78,1469.9,423.91,1471.74,426.05z"/>
	<path d="M1029.88,285.96c-0.2-0.41-0.51-0.74-0.45-1c2.85-12.91,5.73-25.82,8.65-38.92c1.34-0.24,2.49-0.51,3.66-0.63
		c1.04-0.1,2.09-0.03,3.14-0.03c46.79,0,93.58,0,140.37,0.01c2.05,0,4.13-0.26,6.07,0.36c0.44,1.87-0.84,2.78-1.59,3.86
		c-13.47,19.31-26.97,38.61-40.47,57.91c-33.2,47.45-66.4,94.9-99.6,142.36c-1.08,1.54-2.07,3.14-3.03,4.6
		c0.79,1.43,1.93,1.1,2.89,1.11c5.94,0.04,11.87,0.02,17.81,0.02c22,0,44-0.08,65.99,0.04c9.76,0.05,19.08-1.68,27.89-5.88
		c10.97-5.23,19.77-12.98,26.35-23.22c0.85-1.32,1.59-2.71,2.5-3.99c0.23-0.33,0.89-0.37,1.45-0.58c0.1,0.63,0.34,1.16,0.24,1.61
		c-2.91,12.38-5.85,24.75-8.81,37.12c-0.11,0.47-0.58,0.85-1.14,1.62c-54.58,0-109.38,0-164.18-0.01c-0.82,0-1.63-0.14-2.58-0.22
		c-0.1-2.06,1.17-3.14,2.01-4.35c9.9-14.15,19.84-28.27,29.77-42.4c37.11-52.81,74.21-105.61,111.32-158.42
		c0.89-1.27,1.7-2.59,2.48-3.78c-0.59-1.56-1.8-1.14-2.73-1.14c-11-0.04-22-0.03-33-0.03c-12.74,0-25.49-0.09-38.23,0.02
		c-23.16,0.2-40.67,10.64-53.29,29.75c-0.77,1.16-1.4,2.42-2.21,3.55C1030.93,285.66,1030.32,285.75,1029.88,285.96z"/>
	<path d="M885.36,246c2.25,0,4.15,0,6.43,0c0.79,1.57,1.68,3.23,2.47,4.93c21.98,47.24,43.95,94.49,65.92,141.74
		c6.83,14.7,13.76,29.35,20.48,44.1c4.66,10.23,11.65,18.1,21.89,22.95c0.62,0.29,1.17,0.74,1.72,1.15
		c0.12,0.09,0.13,0.32,0.32,0.82c-0.48,0.26-0.98,0.72-1.52,0.77c-1.39,0.13-2.79,0.08-4.18,0.08c-14.14,0-28.28,0-42.42,0
		c-1.71,0-3.43,0-5.7,0c0.41-1.04,0.49-1.73,0.87-2.08c0.76-0.7,1.73-1.17,2.54-1.82c2.53-2.01,4.22-4.56,5.25-7.64
		c0.7-2.09,0.73-4-0.12-6.08c-2.91-7.09-5.45-14.34-8.56-21.34c-4.53-10.19-9.42-20.21-14.2-30.29c-0.73-1.55-1.68-2.99-2.65-4.68
		c-1.55,0-2.93,0-4.3,0c-16.23,0-32.47-0.03-48.7,0.01c-11.88,0.03-23.16,2.69-33.79,7.98c-3.11,1.55-6.1,3.39-8.98,5.33
		c-6.12,4.12-10.4,9.67-12.73,16.75c-2.19,6.63-4.04,13.33-5.2,20.22c-1.3,7.67,1.07,14.09,6.5,19.49c0.96,0.95,1.96,1.87,2.8,2.68
		c-0.3,1.5-1.23,1.46-2.08,1.46c-5.24,0.02-10.47,0.02-15.71,0.02c-8.03,0-16.06,0.01-24.09-0.01c-1.33,0-2.65-0.17-3.76-0.24
		c-0.61-1.27,0.06-1.64,0.63-1.97c0.75-0.43,1.56-0.78,2.34-1.15c12.11-5.82,20.92-14.91,26.7-26.97c1.2-2.51,2.25-5.1,3.25-7.7
		c22.03-57.42,44.05-114.84,66.07-172.26C883.62,250.26,884.42,248.34,885.36,246z M881.47,277.69c-0.26,0.18-0.66,0.31-0.75,0.55
		c-15.12,38.79-30.23,77.59-45.31,116.4c-0.17,0.44-0.09,0.97-0.16,1.88c0.86-0.42,1.46-0.62,1.96-0.97
		c12.69-8.92,26.75-13,42.3-12.68c15.53,0.31,31.07,0.08,46.6,0.06c1.5,0,3-0.16,4.61-0.26c-0.08-0.85,0.01-1.41-0.19-1.84
		c-16.04-34.24-32.11-68.47-48.2-102.69C882.22,277.91,881.77,277.84,881.47,277.69z"/>
	<path d="M1265.45,462.49c-16.09,0-31.79,0-47.49-0.02c-0.47,0-0.93-0.28-1.27-0.38c-0.61-1.01,0.02-1.5,0.58-1.82
		c9.09-5.33,12.33-13.43,12.3-23.72c-0.16-55.13-0.07-110.26-0.09-165.4c0-2.26,0.06-4.57-0.31-6.78
		c-1.03-6.11-4.2-11.02-9.11-14.78c-1.23-0.94-2.51-1.8-4.24-3.04c1.17-0.51,1.86-1.04,2.58-1.09c2.09-0.13,4.19-0.08,6.28-0.08
		c12.05,0,24.1-0.02,36.14,0.02c1.48,0.01,3.12-0.5,4.41,0.74c0.23,1.8-1.38,1.88-2.28,2.44c-4.97,3.1-8.34,7.39-9.75,13.08
		c-0.5,2-0.66,4.13-0.68,6.2c-0.07,8.55-0.03,17.1-0.03,25.65c0,48.15-0.01,96.31,0.02,144.46c0,2.43-0.01,4.93,0.49,7.28
		c1.26,5.88,4.56,10.48,9.6,13.81C1263.67,459.78,1265.2,460.06,1265.45,462.49z"/>
	<path d="M580.8,512.06c1.16-0.27,1.49-0.42,1.83-0.42c14.31,0.05,28.62-0.04,42.93,0.26c7.26,0.15,14.06,2.5,20.16,6.5
		c9.82,6.43,13.95,15.77,13.19,27.28c-1.05,15.77-11.61,24.22-24.45,27.75c-1.68,0.46-3.4,0.79-5.12,1.05
		c-1.53,0.23-3.09,0.27-5.09,0.43c0.47,0.83,0.66,1.49,1.1,1.88c3.8,3.4,6.85,7.43,9.75,11.58c2.89,4.15,5.68,8.37,8.7,12.43
		c1.87,2.51,3.95,4.89,6.16,7.1c1.46,1.45,3.23,2.67,5.04,3.68c3.57,1.98,7.29,2.15,11,0.24c0.74-0.38,1.44-0.83,2.12-1.23
		c0.84,1,0.04,1.43-0.35,1.84c-7.06,7.52-18.73,6.45-25.12,2.49c-3.17-1.96-5.86-4.46-7.86-7.56c-2.36-3.65-4.5-7.45-6.64-11.24
		c-1.88-3.34-3.45-6.87-5.5-10.1c-1.66-2.63-3.66-5.1-5.8-7.36c-2.48-2.63-5.65-3.99-9.39-3.79c-3.1,0.16-6.23-0.2-9.6,0.29
		c-0.14,1.56-0.37,2.9-0.37,4.24c-0.03,8.2,0.11,16.4-0.07,24.59c-0.09,4.48,0.89,8.27,4.7,11c0.19,0.14,0.16,0.59,0.24,0.89
		c-4.09,0.85-16.34,0.89-20.9,0.07c-0.21-1.31,1.02-1.66,1.66-2.37c2.06-2.31,3.28-4.91,3.18-8.05c-0.03-0.87,0-1.74,0-2.62
		c0-25.99,0-51.97,0-77.96c0-0.87-0.03-1.74-0.01-2.62c0.08-2.76-0.98-5.1-2.69-7.18C582.86,514.23,582.03,513.4,580.8,512.06z
		 M597.74,570.96c0.68,0.27,0.99,0.5,1.3,0.5c7.86,0.05,15.72,0.24,23.57,0.06c6.14-0.14,11.55-2.57,16.06-6.73
		c6.7-6.17,9.7-13.92,9.32-22.97c-0.66-15.72-13.39-27.55-27.65-27.1c-6.45,0.21-12.92,0.08-19.38,0.13c-1,0.01-2,0.16-2.91,0.24
		C597.35,519.4,597.14,563.3,597.74,570.96z"/>
	<path d="M846.07,575c-0.11,1.91-0.25,3.12-0.25,4.33c-0.02,8.37,0.1,16.75-0.06,25.11c-0.08,4.33,1.06,7.88,4.66,10.48
		c0.2,0.15,0.2,0.58,0.29,0.89c-0.24,0.2-0.47,0.57-0.71,0.58c-6.11,0.06-12.21,0.09-18.32,0.1c-0.63,0-1.26-0.11-2.25-0.2
		c0.4-0.81,0.51-1.34,0.82-1.61c3.31-2.82,4.46-6.39,4.41-10.69c-0.13-12.9-0.05-25.81-0.05-38.72c0-12.91-0.16-25.82,0.07-38.72
		c0.1-5.46-0.56-10.37-5.43-14.12c0.82-0.4,1.23-0.77,1.64-0.77c14.31,0.03,28.62-0.05,42.93,0.23c7.08,0.14,13.72,2.39,19.72,6.2
		c10.3,6.53,14.52,16.1,13.64,28.05c-1.04,14.16-10.37,23.47-24.36,27.24c-3.17,0.85-6.5,1.13-10.08,1.73
		c0.29,0.56,0.46,1.24,0.88,1.63c3.93,3.52,7.07,7.7,10.05,12.01c2.78,4.01,5.49,8.08,8.4,12c1.87,2.51,3.94,4.9,6.16,7.11
		c1.46,1.46,3.23,2.68,5.03,3.69c3.56,1.99,7.29,2.2,11,0.3c0.74-0.38,1.45-0.84,2.22-1.28c0.8,1.24-0.22,1.73-0.71,2.21
		c-7.23,7.19-18.51,6.01-24.76,2.18c-3.17-1.95-5.87-4.44-7.88-7.54c-2.36-3.65-4.51-7.45-6.65-11.24
		c-1.88-3.34-3.45-6.87-5.49-10.1c-1.66-2.63-3.65-5.1-5.79-7.37c-2.48-2.63-5.63-4-9.38-3.83C852.76,575,849.65,574.95,846.07,575z
		 M846.41,571.6c7.96,0,15.63,0.06,23.3-0.02c7.34-0.07,13.59-2.84,18.66-8.12c6.32-6.59,8.84-14.6,7.82-23.53
		c-1.89-16.52-15.31-25.62-27.32-25.21c-6.63,0.23-13.27,0.08-19.9,0.15c-0.98,0.01-1.95,0.34-2.85,0.5
		C845.53,522.29,845.71,567.02,846.41,571.6z"/>
	<path d="M1046.86,616.36c-0.03-0.61-0.1-0.85-0.03-0.91c4.28-3.35,5.12-7.9,5.1-13.05c-0.11-25.63-0.05-51.27-0.05-76.9
		c0-0.87-0.01-1.74-0.02-2.62c-0.04-3.47-1.07-6.52-3.78-8.84c-0.51-0.44-1.19-0.7-1.5-0.88c0.55-1.85,1.56-1.58,2.33-1.58
		c13.78-0.1,27.57-0.24,41.35-0.23c7.2,0,14.27,1.13,20.94,3.93c14.07,5.93,23.18,16.37,27.5,30.95
		c3.82,12.92,3.68,25.89-0.91,38.55c-6.12,16.9-18.06,27.36-35.87,30.77c-2.55,0.49-5.17,0.89-7.76,0.9
		c-15.18,0.09-30.36,0.05-45.55,0.04C1048.1,616.52,1047.58,616.43,1046.86,616.36z M1063.08,514.85c-0.08,2.45-0.19,4.16-0.19,5.88
		c-0.02,9.94-0.01,19.89-0.01,29.83c0,19.02-0.02,38.03,0.03,57.05c0,1.84-0.53,3.82,0.61,5.53c0.64,0.11,1.14,0.26,1.65,0.26
		c8.21,0.01,16.42,0.16,24.62-0.07c3.27-0.09,6.6-0.72,9.77-1.59c12.69-3.47,21.25-11.77,26.12-23.73
		c6.19-15.17,6.24-30.63,0.5-45.95c-5.88-15.71-19.82-27.28-39.55-27.22c-5.59,0.02-11.17,0-16.76,0
		C1067.8,514.85,1065.73,514.85,1063.08,514.85z"/>
	<path d="M1563.35,618.08c-8.83-0.2-15.26-0.79-21.43-2.89c-17.52-5.96-28.14-18.18-32.15-36.1c-2.65-11.83-2.11-23.66,2-35.07
		c6.7-18.62,19.95-29.77,39.5-33.34c9.24-1.69,18.42-1.39,27.46,1.15c16.04,4.5,27.23,14.52,33.19,30.05
		c5.03,13.12,5.45,26.59,1.38,40.04c-5.66,18.68-18.46,29.94-37.26,34.42C1571.16,617.52,1566.05,617.73,1563.35,618.08z
		 M1605.01,563.81c-0.11-2.44-0.09-4.89-0.34-7.31c-0.99-9.68-3.75-18.77-9.42-26.82c-5.54-7.86-12.96-13.11-22.31-15.41
		c-6.31-1.55-12.68-1.83-19.19-0.61c-9.7,1.82-17.58,6.41-23.67,14.13c-3.72,4.72-6.31,10.03-8.06,15.73
		c-3.17,10.35-3.68,20.92-1.94,31.56c1.25,7.63,3.74,14.85,8.03,21.38c5.27,8.01,12.35,13.62,21.61,16.4
		c4.91,1.48,9.91,1.88,15,1.65c11.38-0.53,20.91-4.92,28.33-13.65c3.19-3.75,5.62-7.97,7.46-12.52
		C1603.69,580.47,1605.12,572.29,1605.01,563.81z"/>
	<path d="M358.43,526.22c-1.22,7.45-2.39,14.65-3.6,21.83c-0.03,0.2-0.56,0.32-1.16,0.63c-0.2-0.86-0.44-1.63-0.55-2.42
		c-0.42-2.93-0.49-5.94-1.23-8.78c-3.32-12.74-11.95-20.12-24.43-23.22c-8.13-2.02-16.31-1.61-24.27,0.98
		c-8.43,2.75-14.97,8.05-19.83,15.46c-4.79,7.31-7.29,15.46-8.21,24.03c-1.09,10.15-0.4,20.21,2.9,29.97
		c2.15,6.34,5.15,12.21,9.63,17.24c9.72,10.91,22.11,14.77,36.31,13.28c5.93-0.62,11.56-2.52,16.6-5.9
		c7.68-5.17,12.29-12.19,13.24-21.49c0.46-4.53,0.38-16.58-0.23-20.37c-1.5-1.19-3.31-0.69-4.99-0.7
		c-11.52-0.04-23.05-0.01-34.57-0.04c-1.56,0-3.13-0.12-4.67-0.34c-0.33-0.05-0.83-0.8-0.78-1.15c0.09-0.59,0.44-1.34,0.91-1.62
		c0.54-0.32,1.34-0.27,2.03-0.27c16.76-0.01,33.52-0.01,50.28,0.01c0.83,0,1.67,0.19,2.04,0.23c0.53,0.48,0.69,0.57,0.78,0.71
		c0.09,0.14,0.14,0.33,0.14,0.5c0.06,15.7,0.12,31.39,0.16,47.09c0,0.87-0.09,1.74-0.18,2.6c-0.01,0.11-0.24,0.21-0.66,0.55
		c-1.8-0.87-2.73-2.79-4.08-4.24c-1.3-1.4-2.48-2.91-3.9-4.6c-0.93,0.51-1.85,0.9-2.65,1.46c-12.42,8.54-26.24,12.16-41.16,10.76
		c-31.19-2.92-45.56-25.04-48.06-46.4c-1.08-9.18-0.6-18.15,2.22-26.88c6.39-19.8,19.95-31.41,40.61-34.43
		c18.05-2.64,34.17,2.23,48.62,13.07C356.5,524.38,357.23,525.14,358.43,526.22z"/>
	<path d="M979.43,618.1c-8.27-0.25-14.5-0.74-20.56-2.65c-15.97-5.04-26.77-15.46-31.69-31.43c-4.45-14.46-3.99-29.02,1.85-43.04
		c7.04-16.9,19.94-26.87,37.94-30.22c9.23-1.72,18.39-1.49,27.46,1c17.55,4.82,29.13,16.03,34.66,33.21
		c3.88,12.06,3.99,24.41,0.39,36.6c-5.6,18.93-18.47,30.32-37.49,34.81C987.25,617.5,982.33,617.72,979.43,618.1z M1021.41,563.79
		c-0.51-4.49-0.7-9.05-1.62-13.46c-0.89-4.23-2.17-8.47-3.91-12.42c-6.06-13.75-16.32-22.22-31.48-24.49
		c-16.16-2.42-33.44,3.8-42.22,20.5c-1.13,2.15-2.19,4.37-3.01,6.66c-5.55,15.55-5.39,31.12,0.28,46.58
		c2.68,7.31,6.85,13.77,13.03,18.65c11.58,9.15,24.66,10.81,38.55,6.92c11.69-3.27,19.45-11.26,24.49-22
		C1019.51,582.24,1021.24,573.21,1021.41,563.79z"/>
	<path d="M1725.35,512.44c-0.86,0.67-1.39,1.12-1.96,1.52c-4.59,3.25-6.83,7.81-7.29,13.3c-0.18,2.08-0.18,4.18-0.19,6.27
		c-0.03,25.64-0.04,51.27-0.06,76.91c0,1.9-0.06,3.8-0.09,5.54c-1.78,0.8-3.04,0.56-4.06-0.68c-1.11-1.35-2.2-2.71-3.29-4.07
		c-21.34-26.71-42.67-53.43-64.02-80.13c-1.04-1.3-2.2-2.52-3.85-4.41c-0.17,1.63-0.33,2.41-0.33,3.2
		c-0.01,23.37,0.01,46.74-0.02,70.11c-0.01,5.83,2.34,10.43,6.91,13.97c0.68,0.53,1.37,1.04,2.06,1.56
		c-0.28,0.36-0.47,0.82-0.68,0.82c-6.89,0.21-13.78,0.33-21.61-0.08c1.62-1.33,2.51-2.05,3.38-2.79c4.1-3.45,6.21-7.89,6.52-13.2
		c0.07-1.22,0.04-2.44,0.04-3.66c0-23.2-0.13-46.39,0.11-69.59c0.05-4.57-1.41-7.7-5.08-10.04c-2.35-1.5-4.71-2.97-7.07-4.46
		c0.08-0.2,0.18-0.71,0.32-0.72c5.91-0.48,11.82-0.25,17.87-0.15c11.49,14.37,22.92,28.67,34.36,42.96
		c11.42,14.28,22.85,28.57,34.3,42.89c1.71-1.19,1.12-2.71,1.13-3.96c0.05-16.22,0.03-32.44,0.03-48.66c0-4.88-0.17-9.77,0.04-14.65
		c0.3-7.23-2.22-12.93-8.35-16.92c-0.28-0.19-0.49-0.49-0.85-0.86c0.37-0.28,0.74-0.79,1.12-0.79c6.46-0.05,12.91-0.05,19.37-0.03
		C1724.36,511.66,1724.63,511.98,1725.35,512.44z"/>
	<path d="M756.21,575.04c-1.14,2.19-0.82,3.96-0.83,5.69c-0.03,7.33,0.11,14.66-0.06,21.98c-0.12,5.13,0.66,9.73,5.2,12.75
		c-0.14,0.39-0.17,0.57-0.27,0.71c-0.09,0.11-0.26,0.23-0.39,0.23c-6.46,0.05-12.91,0.09-19.37,0.1c-0.45,0-0.89-0.25-1.41-0.4
		c5.27-6.47,5.27-6.47,5.27-15.67c0-24.42,0-48.84,0-73.26c0-0.7-0.04-1.4,0.01-2.09c0.34-5.02-0.97-9.34-5.22-12.22
		c0.12-1.16,0.82-1.25,1.51-1.24c14.14,0.06,28.28,0.02,42.41,0.25c6.55,0.11,12.72,2.1,18.41,5.31
		c9.93,5.6,15.09,14.08,15.42,25.56c0.41,14.43-7.46,23.76-18.21,28.51c-4.64,2.05-9.53,3.39-14.67,3.45
		c-7.33,0.08-14.66,0.12-21.99,0.2C760.14,574.9,758.25,574.98,756.21,575.04z M755.75,515.15c-0.16,1.1-0.34,1.78-0.34,2.46
		c-0.02,17.06-0.02,34.13,0,51.19c0,0.8,0.26,1.61,0.41,2.49c1,0.11,1.67,0.24,2.35,0.25c7.14,0.03,14.29,0.18,21.43,0.03
		c9.62-0.21,16.94-4.63,22.07-12.72c2.37-3.74,3.68-7.9,4.25-12.24c2.56-19.21-13.35-32.01-26.81-31.85
		c-6.97,0.08-13.94,0.07-20.91,0.11C757.53,514.88,756.85,515.02,755.75,515.15z"/>
	<path d="M398.65,566.31c-0.59,8.18-0.39,42.55,0.26,46.88c1.1,0.08,2.27,0.24,3.44,0.24c8.2,0.02,16.4,0.03,24.61,0.01
		c11.07-0.03,19.88-4.44,26.31-13.52c0.45-0.64,0.59-1.68,2.05-1.78c-0.48,6.13-2.61,11.8-3.74,17.88c-1.06,0.18-2.06,0.5-3.05,0.5
		c-21.64,0.03-43.28,0.02-64.92,0.01c-0.49,0-0.99-0.16-1.44-0.24c-0.38-0.96,0.35-1.33,0.83-1.74c3.19-2.68,4.24-6.11,4.22-10.21
		c-0.08-26.85-0.08-53.71,0-80.56c0.01-4.11-1.14-7.51-4.27-10.22c-0.34-0.29-0.53-0.77-0.92-1.35c0.63-0.24,1.06-0.53,1.5-0.55
		c12.04-0.54,63.36-0.21,67.76,0.45c1.81,5.81,3,11.88,4.31,17.97c-1.62,0.27-1.78-0.83-2.21-1.45
		c-6.48-9.31-15.44-13.75-26.72-13.71c-7.68,0.03-15.36,0-23.04,0.01c-1.54,0-3.07,0.11-4.28,0.15c-0.44,0.4-0.6,0.5-0.69,0.65
		c-0.09,0.14-0.14,0.32-0.14,0.49c-0.05,14.64-0.1,29.29-0.13,43.93c0,0.68,0.16,1.37,0.29,2.35c1.17,0.16,2.33,0.45,3.49,0.46
		c5.93,0.05,11.87-0.03,17.8,0.04c6.75,0.08,12.3-2.1,16.01-8.02c0.25-0.4,0.73-0.65,1.36-1.19c0.24,0.86,0.58,1.48,0.58,2.11
		c-0.05,6.22,0.36,12.45-0.21,18.57c-1.53,0.43-1.73-0.69-2.14-1.3c-3.27-4.91-7.85-7.17-13.73-7.1
		c-6.63,0.08-13.26,0.01-19.89,0.03C400.96,566.08,399.95,566.21,398.65,566.31z"/>
	<path d="M463.67,616.03c0.92-0.72,1.29-1.13,1.74-1.35c7.14-3.53,11.44-9.39,14.24-16.68c9.58-24.89,19.27-49.73,28.92-74.6
		c1.45-3.73,2.91-7.45,4.45-11.39c1.07-0.06,2.06-0.12,3.3-0.2c0.88,1.73,1.78,3.39,2.58,5.1c13.35,28.4,26.69,56.81,40.02,85.22
		c1.56,3.33,3.1,6.69,5.93,9.15c1.83,1.59,3.88,2.93,5.83,4.38c-0.17,0.24-0.36,0.71-0.54,0.72c-8,0.04-15.99,0.03-24.1,0.03
		c-0.03-1.84,1.63-2.27,2.3-3.4c0.94-1.58,1.59-3.19,0.89-4.95c-3.59-9.07-7.07-18.19-12.24-26.53c-0.09-0.14-0.27-0.22-0.76-0.61
		c-4.34,0-9.04,0-13.74,0c-4.02,0-8.03-0.02-12.05,0.01c-6.79,0.05-13.06,2.02-18.87,5.45c-3.9,2.3-6.7,5.55-7.97,9.97
		c-0.67,2.35-1.33,4.7-1.91,7.07c-1.02,4.17-0.41,7.96,2.81,11.08c0.35,0.34,0.58,0.8,0.89,1.24
		C482.07,616.73,470.84,616.92,463.67,616.03z M511.23,527.7c-0.37,0.59-0.61,0.86-0.73,1.18c-6.96,17.63-13.92,35.27-20.85,52.91
		c-0.21,0.54-0.13,1.19-0.2,1.92c0.68-0.21,1.05-0.24,1.33-0.41c6.57-4.08,13.74-5.65,21.43-5.44c6.1,0.16,12.2,0.05,18.3,0.02
		c1.35-0.01,2.7-0.15,4.11-0.24c0-0.74,0.14-1.3-0.02-1.74C532.7,570.92,513.2,530.65,511.23,527.7z"/>
	<path d="M1229.41,512.31c4.63-0.91,16.49-0.98,21.31-0.26c0.27,1.16-0.78,1.37-1.4,1.82c-5.07,3.65-7.32,8.61-7.3,14.82
		c0.06,18.66,0.05,37.32-0.01,55.99c-0.01,2.77-0.23,5.58-0.7,8.31c-1.18,6.85-4.85,12.21-10.29,16.45
		c-5.21,4.05-11.22,6.31-17.58,7.68c-10.46,2.25-20.83,1.74-30.94-1.76c-3.26-1.13-6.48-2.66-9.37-4.55
		c-7.84-5.14-11.9-12.45-11.86-21.98c0.07-17.09,0.02-34.18,0.02-51.28c0-3.49,0-6.98,0-10.46c-0.01-8.03-0.28-8.78-5.29-14.57
		c0.2-0.25,0.37-0.69,0.59-0.71c6.15-0.59,17.38-0.32,20.62,0.45c0.01,0.16,0.1,0.41,0.03,0.47c-4.27,3.32-5.29,7.78-5.24,12.98
		c0.17,18.66,0.04,37.32,0.09,55.98c0.01,2.6,0.24,5.23,0.64,7.8c1.29,8.25,5.69,14.45,12.77,18.83c4.38,2.71,9.21,4.24,14.24,4.86
		c6.8,0.84,13.56,0.49,20.15-1.79c11.84-4.09,18.5-12.98,18.96-25.46c0.04-1.22,0.03-2.44,0.03-3.66c0-16.92,0-33.84,0-50.75
		c0-1.4,0.05-2.8-0.06-4.18c-0.41-5.09-2.35-9.43-6.42-12.67C1231.57,514,1230.75,513.36,1229.41,512.31z"/>
	<path d="M1361.38,594.39c-0.69,2.17-2.07,3.53-3.3,4.97c-3.89,4.55-8.42,8.37-13.63,11.32c-14.67,8.31-30.26,10.23-46.49,5.98
		c-16.25-4.26-27.12-14.72-32.66-30.42c-5.05-14.31-4.99-28.89,0.35-43.08c7.04-18.73,20.7-29.73,40.67-32.51
		c17.64-2.45,33.52,2.03,47.81,12.47c0.83,0.61,1.58,1.33,2.54,2.13c-0.42,7.15-2,14.13-2.94,21.18c-0.06,0.42-0.61,0.78-1.17,1.45
		c-0.38-0.76-0.83-1.29-0.91-1.87c-0.39-2.93-0.36-5.96-1.07-8.81c-2.78-11.26-10.04-18.52-20.89-22.19
		c-9.57-3.24-19.26-3.04-28.78,0.2c-9.33,3.17-16.17,9.44-20.99,17.96c-3.04,5.37-4.98,11.15-6.05,17.19
		c-2.13,12.08-1.37,23.98,2.76,35.58c2.61,7.35,6.58,13.86,12.45,19.09c8.82,7.86,19.38,10.89,30.95,10.33
		c10.34-0.5,19.79-3.88,28.05-10.27c3.89-3.01,7.21-6.58,10.03-10.62C1358.99,593.18,1359.98,593.02,1361.38,594.39z"/>
	<path d="M1459.2,530.25c-0.92-1.23-1.79-2.49-2.76-3.67c-6.23-7.53-14.11-11.76-24.03-11.71c-3.8,0.02-7.61-0.25-11.64,0.24
		c-0.14,1.44-0.35,2.62-0.35,3.79c-0.02,28.42,0.01,56.84-0.04,85.25c-0.01,4.45,1.14,8.24,4.92,10.95c0.2,0.14,0.2,0.57,0.29,0.87
		c-4.03,0.75-16.35,0.8-20.97,0.09c-0.03-0.16-0.14-0.43-0.09-0.47c4.28-3.3,5.3-7.72,5.27-12.94c-0.15-27.2-0.07-54.39-0.08-81.59
		c0-1.88-0.13-3.75-0.21-5.84c-3.2-0.64-6.15-0.39-9.06-0.33c-3.12,0.07-6.3,0.12-9.33,0.75c-7.67,1.59-13.7,5.82-18.26,12.17
		c-0.69,0.96-1.39,1.9-2.33,3.19c-0.23-3.82,1.99-13.95,4-18.93c3.94-0.64,75.9-0.74,81.34-0.06
		C1457.75,517.8,1458.93,523.88,1459.2,530.25z"/>
	<path d="M1494.48,616.27c-9.58,0.58-19.28,0.42-23.63-0.39c0.99-0.95,1.83-1.72,2.64-2.53c2.06-2.07,3.11-4.59,3.25-7.49
		c0.06-1.22,0.04-2.44,0.04-3.66c0-25.46,0-50.92,0-76.37c0-1.05-0.01-2.09-0.02-3.14c-0.04-3.12-1.23-5.76-3.42-7.95
		c-0.73-0.73-1.5-1.4-2.41-2.24c0.51-0.34,0.89-0.82,1.27-0.82c6.8-0.05,13.61-0.04,20.41-0.02c0.3,0,0.6,0.25,0.92,0.4
		c0.13,1.32-1.12,1.56-1.81,2.21c-2.27,2.14-3.59,4.68-3.52,7.85c0.02,0.7-0.01,1.39-0.01,2.09c0,26.5,0,53.01,0,79.51
		c0,0.87,0.02,1.74,0.02,2.62c-0.01,2.77,1.12,5.07,2.99,7.03C1492.02,614.2,1492.96,614.92,1494.48,616.27z"/>
</g>
</svg>
