<?xml version="1.0" encoding="utf-8"?>
<!-- Generator: Adobe Illustrator 27.9.0, SVG Export Plug-In . SVG Version: 6.00 Build 0)  -->
<svg version="1.1" id="Layer_1" xmlns="http://www.w3.org/2000/svg" xmlns:xlink="http://www.w3.org/1999/xlink" x="0px" y="0px"
	 viewBox="0 0 1956.29 861.34" style="enable-background:new 0 0 1956.29 861.34;" xml:space="preserve">
<g>
	<path d="M883.85,409.37c-2.02-4.79-3.82-9.04-5.56-13.18c0.96-1.04,1.94-1.1,2.56-0.27c0.76,1.02,1.27,2.24,1.78,3.43
		c3.53,8.19,7.03,16.39,10.56,24.58c0.72,1.68,1.56,3.3,2.32,4.88c2.05-0.09,2.03-1.75,2.49-2.79c3.87-8.85,7.64-17.74,11.45-26.62
		c0.51-1.19,0.96-2.44,1.7-3.47c0.64-0.88,1.61-0.66,2.36,0.12c-1.79,6.03-15,36.57-17.59,40.49c-1.75-2.34-2.47-5.01-3.58-7.45
		c-1.08-2.37-2.04-4.79-3.08-7.17c-1.11-2.54-2.26-5.07-3.54-7.94c-1.27,0.91-1.58,2.08-2.06,3.17c-2.43,5.63-4.89,11.24-7.36,16.85
		c-0.36,0.81-0.83,1.56-1.16,2.16c-0.53,0.05-0.73,0.12-0.86,0.06c-0.15-0.07-0.28-0.25-0.36-0.42
		c-5.6-12.96-11.19-25.92-16.77-38.88c-0.13-0.31-0.02-0.72-0.02-1.09c0.94-1.33,2.08-0.85,2.74,0.05c0.75,1.02,1.08,2.35,1.59,3.54
		c3.61,8.56,7.22,17.12,10.85,25.66c0.56,1.32,1.26,2.58,1.88,3.84c0.42-0.14,0.7-0.15,0.75-0.27
		C877.9,422.28,880.84,415.9,883.85,409.37z"/>
	<path d="M644.41,428.42c0.06-1.42,0.17-2.84,0.17-4.25c0.02-7.81-0.01-15.63,0.02-23.44c0-1.48,0-2.99,0.34-4.4
		c0.11-0.46,1.32-0.66,2.11-1.01c0.87,4.43,1.12,30.78,0.45,40.42c-1.44,0.85-2-0.46-2.65-1.21c-8.36-9.5-16.68-19.03-25.02-28.54
		c-1.18-1.35-2.47-2.6-4.28-4.5c-0.22,2.04-0.46,3.24-0.46,4.44c0,8,0.05,16,0.07,24c0,1.3,0.02,2.61-0.16,3.89
		c-0.14,0.98-0.77,1.66-1.97,1.42c-0.22-0.24-0.66-0.48-0.66-0.73c-0.16-11.89-0.3-23.79-0.4-35.68c-0.01-1.05,0.21-2.1,0.3-2.92
		c1.4-0.78,2.17-0.2,2.79,0.49c2.12,2.35,4.2,4.73,6.27,7.12c5.98,6.88,11.94,13.78,17.92,20.66c1.33,1.54,2.72,3.03,4.08,4.54
		C643.68,428.62,644.05,428.52,644.41,428.42z"/>
	<path d="M729.55,434.98c-0.26-13.1-0.16-26.08-0.2-39.52c1.21,0.28,2.19,0.24,2.77,0.7c1.01,0.79,1.79,1.88,2.64,2.86
		c6.96,8,13.91,16.02,20.87,24.02c1.69,1.94,3.41,3.86,5.03,5.67c1.54-0.58,1.29-1.61,1.29-2.48c0.02-8.37-0.01-16.74,0.04-25.11
		c0.01-1.83-0.39-3.72,0.73-5.81c0.72,0.35,1.64,0.52,2.08,1.08c0.39,0.5,0.32,1.41,0.32,2.14c0.01,12.09,0,24.18-0.03,36.27
		c0,0.33-0.22,0.66-0.35,1.01c-1.43,0.59-1.95-0.67-2.61-1.42c-7.26-8.24-14.47-16.51-21.71-24.77c-2.2-2.51-4.42-5.01-6.55-7.43
		c-1.51,0.3-1.4,1.32-1.4,2.21c0.01,8.37,0.05,16.74,0.06,25.11c0,1.49,0.03,2.99-0.19,4.45
		C732.18,434.98,731.39,435.52,729.55,434.98z"/>
	<path d="M1255.49,435.83c-11.61,0.45-20.74-9.79-20.82-20.29c-0.08-10.19,8.19-20.96,20.94-20.91
		c12.4,0.04,20.92,10.44,20.83,21.04C1276.36,426.07,1267.09,436.34,1255.49,435.83z M1255.83,397.65
		c-7.78-0.75-17.85,6.25-18.12,17.3c-0.24,9.77,7.53,18.1,17.87,18.12c9.8,0.02,17.9-8.02,17.96-17.64
		C1273.6,405.74,1265.64,397.74,1255.83,397.65z"/>
	<path d="M1374.76,435.83c-10.66,0.4-20.54-9.22-20.46-20.64c0.07-10.26,8.65-20.86,21.28-20.56c12.59,0.3,20.48,10.83,20.48,20.82
		C1396.08,426.12,1386.58,436.52,1374.76,435.83z M1357.38,415.3c-0.35,9.27,7.25,17.7,17.62,17.74
		c10.08,0.04,17.88-7.65,18.14-17.41c0.27-9.88-7.94-18.01-18.05-17.99C1365.19,397.67,1357.44,405.4,1357.38,415.3z"/>
	<path d="M1032.32,428.57c0-2.57,0-5.14,0-7.71c0-7.25-0.02-14.51,0.03-21.76c0.01-1.09,0.25-2.19,0.5-3.25
		c0.05-0.21,0.61-0.41,0.93-0.4c0.34,0,0.91,0.18,0.97,0.4c0.29,1.05,0.61,2.14,0.62,3.22c0.06,6.51,0.03,13.02,0.03,19.53
		c0,4.84,0.03,9.67-0.03,14.51c-0.01,1.02-0.33,2.04-0.6,3.55c-2.9-2.38-4.71-4.98-6.83-7.28c-2.02-2.18-3.92-4.48-5.88-6.72
		c-2.08-2.38-4.16-4.76-6.24-7.14c-1.96-2.24-3.91-4.49-5.9-6.71c-2.07-2.31-3.9-4.88-6.28-6.77c-1.39,0.68-1.09,1.71-1.09,2.57
		c0,8.37,0.05,16.74,0.06,25.11c0,1.48-0.08,2.97-0.28,4.44c-0.05,0.41-0.85,1.11-0.97,1.04c-0.55-0.3-1.24-0.73-1.41-1.27
		c-0.28-0.85-0.26-1.83-0.26-2.75c-0.09-10.79-0.17-21.57-0.21-32.36c0-1.06,0.23-2.12,0.33-2.95c1.39-0.78,2.13-0.25,2.77,0.45
		c1.51,1.64,2.99,3.32,4.45,5c7.21,8.28,14.41,16.57,21.62,24.84c0.83,0.96,1.74,1.86,2.61,2.79
		C1031.61,428.81,1031.97,428.69,1032.32,428.57z"/>
	<path d="M1667.39,417.03c-0.03,4.56-0.04,8.81-0.1,13.05c-0.02,1.47-0.12,2.96-0.36,4.41c-0.06,0.35-0.83,0.82-1.24,0.8
		c-0.42-0.02-1.03-0.51-1.18-0.93c-0.25-0.67-0.26-1.45-0.26-2.19c0-11.17,0.02-22.34,0.05-33.51c0-0.73,0.02-1.51,0.24-2.2
		c0.36-1.12,1.22-1.21,2.41-0.62c0.96,5.53-0.17,11.32,0.65,16.93c4.11,0.94,16.1,1.1,23.18,0.31c0.14-1.13,0.41-2.36,0.44-3.59
		c0.09-4.09,0.04-8.19,0.14-12.28c0.03-1.31,0.77-2.04,2.35-1.58c0.17,0.4,0.52,0.87,0.55,1.37c0.43,6.76,0.15,34.13-0.35,37.91
		c-1.27,0.9-2.22,0.33-2.45-0.93c-0.29-1.63-0.19-3.33-0.21-5.01c-0.05-3.88-0.08-7.76-0.11-11.54
		C1687.06,416.4,1675.39,416.2,1667.39,417.03z"/>
	<path d="M1198,413.22c0-2.83,0-5.05,0-7.27c0.01-2.79,0-5.58,0.04-8.38c0.01-0.93,0.16-1.86,1.3-2.14
		c0.95-0.24,1.76,0.66,1.78,2.21c0.05,3.72,0.04,7.45,0.04,11.17c0,7.26,0.01,14.52-0.01,21.78c0,1.29-0.08,2.6-0.32,3.86
		c-0.07,0.37-0.79,0.86-1.22,0.87c-0.43,0.01-1.19-0.46-1.24-0.81c-0.24-1.45-0.33-2.93-0.36-4.41c-0.07-4.25-0.07-8.5-0.1-12.64
		c-4.14-1.06-15.66-1.26-23.35-0.45c-0.17,1.12-0.49,2.33-0.52,3.56c-0.09,4.28-0.05,8.56-0.13,12.84c-0.02,1.28-0.75,2-2.37,1.85
		c-0.17-0.71-0.46-1.39-0.47-2.07c-0.02-11.73,0-23.46,0.03-35.18c0-0.72,0.19-1.47,0.44-2.15c0.08-0.23,0.63-0.41,0.95-0.4
		c0.33,0.02,0.87,0.25,0.93,0.49c0.27,1.06,0.54,2.16,0.55,3.24c0.06,4.46,0.02,8.92,0.02,13.63c1.27,0.27,2.3,0.66,3.33,0.67
		c5.77,0.06,11.55,0.04,17.33,0.02C1195.56,413.5,1196.46,413.35,1198,413.22z"/>
	<path d="M513.08,416.94c-7.15-0.67-19.03-0.51-23.3,0.33c-1.11,5.87,0.41,12.05-0.92,18.3c-0.84-0.4-1.61-0.54-1.68-0.85
		c-0.29-1.24-0.51-2.53-0.51-3.8c-0.01-10.59,0.03-21.19,0.07-31.78c0-0.74-0.09-1.54,0.16-2.2c0.2-0.54,0.85-0.91,1.3-1.36
		c0.34,0.36,0.94,0.69,0.98,1.09c0.17,1.47,0.2,2.96,0.21,4.44c0.03,3.16,0.01,6.32,0.04,9.48c0.01,0.72,0.18,1.43,0.26,2.07
		c3.97,1.08,17.41,1.25,23.55,0.3c1.16-5.67-0.39-11.64,0.98-17.8c0.9,0.42,1.78,0.55,2.01,1c0.39,0.78,0.5,1.77,0.5,2.67
		c0.03,10.96,0.03,21.93,0.01,32.89c0,0.91-0.06,1.89-0.41,2.69c-0.22,0.51-1.04,0.75-2,1.39
		C512.69,429.24,514.64,422.88,513.08,416.94z"/>
	<path d="M342.64,435.79c-1.84-0.46-2.78-0.41-3.03-0.8c-0.9-1.39-1.63-2.9-2.3-4.42c-1.72-3.88-3.37-7.79-5.06-11.72
		c-5.47-0.47-10.62-0.57-15.98,0.03c-2.03,4.68-3.98,9.28-6.02,13.83c-0.43,0.97-1.15,1.83-1.83,2.66c-0.15,0.18-0.75,0.13-1.05,0
		c-0.28-0.12-0.61-0.5-0.62-0.78c-0.02-0.54,0.06-1.12,0.27-1.62c5.42-12.62,10.87-25.22,16.33-37.82c0.14-0.32,0.48-0.55,0.96-1.09
		c2.8,4.21,4.2,8.97,6.21,13.42c1.99,4.4,3.84,8.86,5.74,13.29C338.21,425.36,340.15,429.95,342.64,435.79z M318.19,415.4
		c4.16,0.37,7.98,0.4,12.23,0.01c-1.72-5.08-3.45-9.75-6.33-14.52C321.8,405.94,319.51,410.34,318.19,415.4z"/>
	<path d="M1578.42,435.88c-1.36-0.53-2.24-0.6-2.53-1.05c-0.81-1.23-1.43-2.59-2.02-3.95c-1.71-3.91-3.37-7.84-5.2-12.09
		c-5.15-0.5-10.29-0.36-15.53-0.06c-1.65,1.96-2.23,4.34-3.2,6.51c-1.29,2.88-2.48,5.8-3.77,8.68c-0.48,1.07-1.17,1.93-2.61,1.39
		c-0.96-1.05-0.24-2.09,0.17-3.06c2.09-4.96,4.25-9.89,6.38-14.83c2.71-6.31,5.4-12.63,8.13-18.93c0.65-1.51,1.44-2.96,2.24-4.59
		C1562.98,397.63,1576.97,430.13,1578.42,435.88z M1567.2,415.51c-2.29-5.29-3.85-9.98-6.45-14.36c-3.44,5.79-5.51,11.18-5.54,14.36
		C1558.91,415.51,1562.61,415.51,1567.2,415.51z"/>
	<path d="M545.83,434.76c5.67-13.65,11.54-27.02,17.53-40.86c0.74,0.77,1.37,1.16,1.61,1.71c5.36,12.44,10.67,24.89,15.98,37.35
		c0.27,0.63,0.38,1.32,0.54,1.89c-1.11,0.92-2.06,0.82-2.59-0.06c-0.86-1.42-1.54-2.96-2.21-4.48c-1.62-3.73-3.19-7.49-4.7-11.04
		c-4.47-0.93-10.43-1.01-16.06-0.24c-1.54,2.32-2.41,5.16-3.6,7.84c-1.05,2.38-2.01,4.79-3.12,7.14
		C548.73,435.02,548.02,435.96,545.83,434.76z M569.99,415.51c-1.77-5.3-3.55-9.84-6.12-14.25c-3.11,5.04-5.34,10.6-5.74,14.25
		C561.82,415.51,565.5,415.51,569.99,415.51z"/>
	<path d="M959.05,418.91c-5.3-0.74-10.44-0.38-15.79-0.25c-1.94,4.45-3.78,8.68-5.65,12.91c-0.52,1.18-1.02,2.41-1.79,3.42
		c-0.66,0.86-1.62,0.61-2.64-0.48c5.67-13.11,11.4-26.36,17.17-39.61c0.12-0.28,0.59-0.4,1.1-0.72c0.45,0.78,0.96,1.52,1.31,2.33
		c5.04,11.77,10.06,23.54,15.07,35.32c0.35,0.83,0.6,1.73,0.76,2.62c0.05,0.26-0.26,0.74-0.53,0.88c-0.27,0.15-0.85,0.15-1.03-0.04
		c-0.62-0.64-1.29-1.32-1.65-2.11c-1.75-3.89-3.4-7.83-5.1-11.74C959.92,420.63,959.5,419.83,959.05,418.91z M951.38,401.01
		c-3.17,5.18-5.35,10.58-5.9,14.43c3.84,0,7.66,0,11.83,0C955.77,410.4,953.64,405.95,951.38,401.01z"/>
	<path d="M1502.83,416.91c-2.35,0-4.36,0-6.29,0c-1.19,1.89-0.75,3.78-0.79,5.59c-0.08,3.53-0.03,7.07-0.11,10.6
		c-0.02,0.87-0.1,1.99-1.28,2.11c-1.3,0.13-1.33-1.02-1.45-1.89c-0.1-0.73-0.06-1.48-0.06-2.23c0-10.6-0.01-21.2,0.01-31.8
		c0-1.09,0.12-2.19,0.19-3.19c4.56-1.65,11.51-1.39,15.25,0.55c3.54,1.83,5.84,4.52,5.99,8.7c0.15,4.27-1.42,7.6-5.22,9.75
		c-0.79,0.45-1.61,0.86-2.66,1.42c0.37,1.08,0.62,2.13,1.07,3.09c1.87,4.05,3.8,8.07,5.68,12.11c0.45,0.97,0.74,2.01,1.06,2.89
		c-1.02,1.14-1.99,0.95-2.54,0.15c-0.93-1.37-1.66-2.88-2.39-4.38C1507.11,425.89,1504.97,421.38,1502.83,416.91z M1496.21,413.31
		c1.32,0.13,2.41,0.32,3.49,0.33c1.47,0.02,2.96,0.02,4.42-0.17c3.79-0.48,6.39-2.81,6.94-6.09c0.62-3.73-1.05-6.76-4.74-8.43
		c-3.29-1.49-6.67-1.56-10.58-0.65C1495.97,403.39,1495.22,408.29,1496.21,413.31z"/>
	<path d="M823.56,394.94c1.26,0.69,2.11,0.87,2.32,1.34c0.36,0.8,0.43,1.79,0.42,2.69c-0.05,7.62-0.13,15.23-0.23,22.85
		c-0.02,1.3-0.12,2.6-0.35,3.88c-1.16,6.49-6.29,10.2-13.9,10.1c-7.17-0.1-12.08-3.97-13.09-10.38c-0.17-1.1-0.25-2.22-0.27-3.33
		c-0.13-7.61-0.25-15.23-0.34-22.84c-0.01-0.92-0.09-1.96,0.3-2.71c0.31-0.59,1.32-0.8,2.03-1.19c1.19,2.05,0.83,3.95,0.84,5.78
		c0.04,6.32-0.04,12.63,0.05,18.95c0.03,2.02,0.23,4.1,0.76,6.04c0.95,3.49,3.34,5.64,6.92,6.51c2.23,0.54,4.4,0.52,6.61-0.05
		c3.55-0.92,5.92-3.1,6.81-6.62c0.5-1.95,0.7-4.02,0.74-6.05c0.12-6.5,0.08-13,0.14-19.51
		C823.33,398.93,823.45,397.47,823.56,394.94z"/>
	<path d="M1459.4,418.79c0.92,5.02,0.55,9.42,0.34,13.65c-1.4,2.07-3.5,2.56-5.42,2.96c-14,2.93-23.3-5.93-25.55-15.67
		c-2.22-9.6,3.81-21.68,15.83-24.45c5.02-1.16,9.56-0.35,14,1.82c0.4,0.19,0.56,1.23,0.5,1.84c-0.03,0.28-0.94,0.76-1.33,0.67
		c-1.25-0.3-2.43-0.89-3.67-1.26c-10.29-3.02-19.5,3.8-21.96,12.11c-2.67,9.02,2.48,18.99,11.45,21.87c3.65,1.17,7.3,1.2,10.95,0
		c1.73-0.57,2.33-1.29,2.41-3.25c0.09-2.41,0.06-4.83,0.11-7.24C1457.09,421.06,1457.14,421.06,1459.4,418.79z"/>
	<path d="M1116.19,395.56c4.45-1,8.72-0.88,12.86,0.19c7.11,1.83,10.37,9.05,7.06,15.3c-2.03,3.82-5.54,5.32-9.65,5.6
		c-2.37,0.16-4.76,0.13-7.31,0.18c-1.18,6.31,0.4,12.45-1.06,18.87c-0.89-0.57-1.76-0.8-1.92-1.27c-0.34-1.02-0.43-2.16-0.44-3.26
		c-0.03-10.58-0.03-21.17,0.01-31.75C1115.75,398.17,1116.03,396.91,1116.19,395.56z M1118.6,398.12
		c0.35,5.31-0.49,10.22,0.57,15.32c3,0,5.79,0.28,8.49-0.07c4.23-0.55,7-4.21,6.54-8.23c-0.35-3.06-2.29-4.93-4.95-6.2
		C1126.11,397.44,1122.81,397.6,1118.6,398.12z"/>
	<path d="M401,435.51c-1.73-0.26-2.75-0.13-3.33-0.57c-1.01-0.77-1.79-1.86-2.6-2.87c-4.18-5.23-8.33-10.48-12.5-15.71
		c-0.69-0.86-1.43-1.69-2.36-2.78c-1.09,0.86-2.06,1.61-3.02,2.38c-1.4,1.13-1.95,2.55-1.89,4.39c0.13,3.71,0.09,7.43,0.04,11.15
		c-0.02,1.08-0.22,2.19-0.53,3.23c-0.1,0.32-0.85,0.45-1.57,0.79c-0.27-1.27-0.68-2.33-0.68-3.38c-0.05-11.15-0.04-22.3-0.01-33.45
		c0-0.89,0.27-1.8,0.53-2.66c0.07-0.22,0.56-0.43,0.86-0.43c0.3,0,0.81,0.21,0.86,0.42c0.25,1.06,0.52,2.15,0.54,3.23
		c0.06,4.26,0.02,8.53,0.02,12.62c1.28,0.9,1.96,0.18,2.63-0.44c4.6-4.33,9.19-8.68,13.81-13c1.08-1.01,2.17-2.06,3.42-2.82
		c0.64-0.39,1.65-0.16,3.24-0.25c-5.14,6.12-11.14,10.29-15.9,15.96C388.28,419.47,394.99,426.66,401,435.51z"/>
	<path d="M450.17,398.61c-2.03,0-3.24,0.1-4.44-0.02c-2.01-0.2-4.02-0.89-5.99-0.75c-4.55,0.31-7.51,4.8-6.39,9.23
		c0.44,1.74,1.58,2.99,3.1,3.74c1.65,0.81,3.45,1.33,5.19,1.96c1.74,0.63,3.55,1.12,5.22,1.89c4.79,2.21,6.93,6.03,6.44,11.2
		c-0.43,4.47-3.62,8.49-8.21,9.48c-5.24,1.13-10.36,0.67-14.75-2.93c-0.28-0.23-0.49-0.55-0.69-0.85c-0.09-0.14-0.08-0.35-0.13-0.59
		c0.69-1.27,1.85-1.01,2.76-0.51c1.96,1.1,3.89,2.29,6.17,2.34c2.01,0.05,4.12,0.07,6.02-0.48c3.26-0.95,5.36-3.22,5.69-6.79
		c0.35-3.87-0.99-6.5-4.43-8.19c-1.65-0.81-3.48-1.24-5.22-1.86c-1.74-0.62-3.52-1.18-5.2-1.94c-3.35-1.51-5.19-4.15-5.27-7.85
		c-0.09-3.99,1.38-7.27,4.95-9.32c2.13-1.23,4.51-1.9,6.95-1.51C444.58,395.3,447.51,395.23,450.17,398.61z"/>
	<path d="M1609.35,395.44c4.77-0.71,9.2-0.84,13.48,0.46c6.98,2.11,9.91,9.57,6.31,15.6c-2.1,3.51-5.48,4.85-9.35,5.14
		c-2.37,0.18-4.75,0.16-7.41,0.24c-0.13,1.55-0.31,2.8-0.32,4.05c-0.03,4.08,0.04,8.16-0.01,12.24c-0.01,1.16-0.39,2.2-1.98,2.05
		c-0.2-0.22-0.63-0.47-0.64-0.72c-0.13-10.93-0.23-21.87-0.3-32.8C1609.12,399.71,1609.26,397.71,1609.35,395.44z M1612.54,398.04
		c-0.85,6.26-0.74,11.37,0.32,15.43c1.55,0.06,3.19,0.17,4.82,0.18c1.1,0,2.23-0.04,3.31-0.24c4.28-0.79,6.82-4.09,6.44-8.27
		c-0.29-3.11-2.25-4.93-4.88-6.19C1619.41,397.45,1616.13,397.58,1612.54,398.04z"/>
	<path d="M1739.04,416.27c0.94-1.26,1.62-2.06,2.17-2.94c2.94-4.73,5.85-9.48,8.78-14.22c0.68-1.1,1.35-2.23,2.2-3.2
		c0.65-0.74,1.56-0.95,2.6,0.18c-0.58,1.19-1.12,2.53-1.85,3.77c-3.4,5.75-6.81,11.5-10.31,17.19c-1.21,1.97-1.81,3.98-1.75,6.31
		c0.09,3.34,0.06,6.69-0.07,10.03c-0.06,1.53-0.92,2.39-2.74,1.71c-1.15-2.21-0.6-4.66-0.64-7.03c-0.16-9.61,0.74-6.32-4.13-14.54
		c-3.12-5.27-6.28-10.52-9.4-15.79c-0.48-0.81-0.95-1.9,0.16-2.33c0.64-0.24,1.87,0.21,2.41,0.77c0.89,0.91,1.46,2.14,2.12,3.25
		c2.77,4.62,5.51,9.25,8.29,13.86C1737.45,414.18,1738.13,415.01,1739.04,416.27z"/>
	<path d="M251.36,432.23c2.12,0.1,3.92,0.25,5.74,0.27c4.09,0.04,8.19-0.01,12.28,0.05c1.61,0.02,2.9,0.61,2.89,2.57
		c-4.57,0.61-18.58,0.62-23.54-0.01c-0.2-0.98-0.6-2.04-0.6-3.09c-0.05-11.16-0.04-22.32,0-33.47c0-0.89,0.3-1.81,0.59-2.67
		c0.08-0.23,0.62-0.43,0.96-0.43c0.32-0.01,0.9,0.2,0.94,0.4c0.23,1.26,0.48,2.54,0.48,3.82c0.04,8.93,0.01,17.85,0.03,26.78
		C251.12,428.26,251.27,430.08,251.36,432.23z"/>
	<path d="M1331.71,397.15c-4.69,1.38-9.39,0.01-14.29,0.99c-0.14,1.66-0.4,3.26-0.4,4.86c-0.03,9.3,0.01,18.59,0.01,27.89
		c0,1.11,0.12,2.29-0.25,3.29c-0.21,0.58-1.27,0.86-2.55,1.65c-0.45-12.88,0.06-25.1-0.33-37.47c-2.41-0.9-4.65-0.47-6.82-0.58
		c-2.22-0.11-4.44-0.15-6.66-0.29c-0.24-0.02-0.68-0.51-0.65-0.71c0.09-0.48,0.3-1.15,0.66-1.32c0.64-0.3,1.42-0.4,2.15-0.4
		c8.56-0.03,17.12-0.04,25.68,0c0.89,0,1.83,0.23,2.66,0.58C1331.28,395.77,1331.39,396.49,1331.71,397.15z"/>
</g>
</svg>
