<?xml version="1.0" encoding="utf-8"?>
<!-- Generator: Adobe Illustrator 27.9.0, SVG Export Plug-In . SVG Version: 6.00 Build 0)  -->
<svg version="1.1" id="Layer_1" xmlns="http://www.w3.org/2000/svg" xmlns:xlink="http://www.w3.org/1999/xlink" x="0px" y="0px"
	 viewBox="0 0 612 792" style="enable-background:new 0 0 612 792;" xml:space="preserve">
<style type="text/css">
	.st0{fill:#FBB03B;}
</style>
<g>
	<path class="st0" d="M177.05,359.62c0-46.44-0.02-92.88,0.01-139.32c0.02-31.41,20.19-59.17,50.03-69
		c7.34-2.42,14.89-3.62,22.61-3.62c37.57-0.01,75.14-0.01,112.7,0c34.88,0.01,64.94,25.02,71.24,59.39
		c0.8,4.38,1.25,8.88,1.26,13.33c0.07,92.8,0.06,185.6,0.05,278.4c0,35.4-25.53,65.76-60.36,71.68c-3.92,0.67-7.94,1.03-11.92,1.04
		c-37.73,0.08-75.46,0.16-113.18,0.01c-33.54-0.13-62.17-22.77-70.31-55.26c-1.46-5.84-2.13-11.78-2.13-17.8
		C177.05,452.18,177.05,405.9,177.05,359.62z M182.14,359.5c0,45.8,0,91.59-0.01,137.39c0,5.04,0.24,10.07,1.23,15.02
		c6.58,32.88,35.43,54.64,66.25,54.53c37.56-0.14,75.13-0.04,112.69-0.02c4.98,0,9.88-0.52,14.74-1.56
		c29.62-6.32,52.06-33.28,52.72-63.57c0.22-9.99,0.07-19.98,0.07-29.97c0-83.44-0.01-166.88,0.02-250.32
		c0-6.19-0.67-12.28-2.3-18.25c-8.09-29.6-34.31-49.86-65.04-49.96c-37.72-0.12-75.45-0.05-113.17,0c-3.26,0-6.58,0.15-9.79,0.72
		c-25.66,4.61-43.44,19.04-53.16,43.23c-3.26,8.1-4.28,16.64-4.28,25.36C182.17,267.91,182.14,313.71,182.14,359.5z"/>
	<path class="st0" d="M223.04,604.12c-0.75,1.13-1.49,2.27-2.49,3.78c-0.96-1.44-1.71-2.57-2.46-3.69c-0.13,0.01-0.27,0.01-0.4,0.02
		c0,2.02,0.03,4.03-0.01,6.05c-0.03,1.16-0.08,1.16-1.76,1.08c0-4.02,0-8.05,0-12.08c1.21-0.69,1.82-0.04,2.32,0.88
		c0.7,1.31,1.4,2.63,2.28,4.27c0.77-1.41,1.37-2.51,1.98-3.61c0.27-0.49,0.49-1.04,0.89-1.4c0.3-0.27,0.91-0.48,1.26-0.36
		c0.32,0.11,0.65,0.69,0.68,1.08c0.09,1.27,0.04,2.55,0.05,3.83c0,1.91,0.02,3.83-0.01,5.74c-0.01,0.73,0.32,1.81-0.9,1.85
		c-1.46,0.05-0.96-1.19-0.99-1.94c-0.06-1.79-0.02-3.59-0.02-5.38C223.32,604.19,223.18,604.15,223.04,604.12z"/>
	<path class="st0" d="M402.01,604.5c0,2.23,0,4.45,0,6.65c-1.68,0.48-1.86,0.43-1.88-0.88c-0.05-3.26-0.02-6.53-0.01-9.8
		c0-0.63-0.07-1.46,0.8-1.45c0.51,0.01,1.23,0.41,1.49,0.85c0.96,1.65,1.77,3.38,2.65,5.08c0.21,0.4,0.49,0.76,1.11,1.08
		c0-2.25,0-4.49,0-6.68c1.86-0.37,1.94-0.37,1.96,1.02c0.05,3.26,0.04,6.53-0.01,9.8c-0.01,0.46-0.4,0.92-0.61,1.38
		c-0.53-0.26-1.27-0.39-1.54-0.81c-0.88-1.42-1.58-2.94-2.36-4.42c-0.36-0.67-0.74-1.33-1.12-2
		C402.32,604.39,402.16,604.45,402.01,604.5z"/>
	<path class="st0" d="M252.7,604.63c0,1.88-0.01,3.76,0,5.63c0,1.2-0.54,1.54-1.77,1.12c0-4.06,0-8.08,0-12.14
		c1.17-0.68,1.79-0.03,2.27,0.89c1.02,1.96,2.02,3.93,3.5,5.85c0.03-1.84,0.06-3.68,0.08-5.53c0.01-1.05,0.28-1.75,1.88-1.28
		c0.06,3.99,0.03,8.08,0,12.08c-1.46,0.73-1.95-0.1-2.41-0.98c-0.99-1.9-1.98-3.81-2.97-5.71
		C253.09,604.58,252.89,604.61,252.7,604.63z"/>
	<path class="st0" d="M328.95,606.36c0,1.37-0.01,2.71,0.01,4.06c0.01,0.64-0.19,1.1-0.89,1.16c-0.71,0.06-1.01-0.33-1.01-1
		c0-3.8,0-7.59,0-11.63c1.68,0,3.09-0.06,4.5,0.02c1.43,0.08,2.75,0.59,3.12,2.12c0.36,1.48,0.45,3.03-0.92,4.18
		c-0.3,0.25-0.62,0.47-1.13,0.85c0.64,1.25,1.3,2.5,1.93,3.76c0.3,0.59,0.58,1.24-0.25,1.61c-0.73,0.33-1.19-0.11-1.52-0.74
		c-0.62-1.2-1.26-2.39-1.86-3.6C330.6,606.45,330.18,605.92,328.95,606.36z M329.14,600.46c0,1.35,0,2.71,0,4.06
		c2.76,0.26,3.76-0.26,3.8-1.93C332.97,600.9,332.02,600.34,329.14,600.46z"/>
	<path class="st0" d="M305.97,606.35c0,1.64,0,3.22,0,4.75c-1.73,0.59-1.91,0.55-1.92-0.79c-0.05-3.66-0.02-7.31-0.02-11.09
		c1.89-0.48,3.71-0.49,5.46-0.07c2.38,0.57,3.24,3.87,1.58,5.8c-0.35,0.41-0.84,0.7-1.42,1.16c0.6,1.19,1.19,2.38,1.8,3.57
		c0.33,0.65,0.78,1.37-0.17,1.8c-0.88,0.4-1.28-0.31-1.62-0.97c-0.59-1.13-1.18-2.25-1.75-3.39
		C307.56,606.42,307.13,605.92,305.97,606.35z M306.03,604.64c1.48,0.03,2.92,0.39,3.58-1.01c0.31-0.65,0.24-1.81-0.16-2.4
		c-0.81-1.22-2.14-0.89-3.43-0.71C306.03,601.93,306.03,603.16,306.03,604.64z"/>
	<path class="st0" d="M347.02,611.37c0-4.09,0-8.11,0-12.38c1.71,0,3.29-0.12,4.84,0.03c1.66,0.17,2.64,1.13,2.75,2.82
		c0.15,2.3,0.11,4.62,0.01,6.92c-0.06,1.4-0.89,2.39-2.32,2.67C350.57,611.79,348.84,611.84,347.02,611.37z M348.96,600.63
		c0,3.13,0,6.27,0,9.38c3.16,0.37,3.81-0.15,3.86-3.01c0.02-1.11,0.02-2.23,0-3.35C352.77,600.67,352.06,600.11,348.96,600.63z"/>
	<path class="st0" d="M397.71,605.39c0,1.04,0.07,2.08-0.01,3.12c-0.16,2.02-1.31,3.02-3.5,3.15c-2.3,0.14-3.95-0.81-4.11-2.75
		c-0.2-2.38-0.19-4.8-0.01-7.18c0.15-1.95,1.74-2.89,4.07-2.8c2.19,0.09,3.38,1.09,3.54,3.1
		C397.78,603.14,397.7,604.27,397.71,605.39C397.71,605.39,397.71,605.39,397.71,605.39z M395.77,605.35
		C395.77,605.35,395.77,605.35,395.77,605.35c0.01-1.03,0.06-2.07,0-3.1c-0.07-1.1-0.76-1.78-1.84-1.82
		c-1.1-0.04-1.89,0.65-1.94,1.71c-0.11,2.14-0.11,4.29,0.03,6.43c0.07,1.07,1.06,1.7,2.05,1.57c0.97-0.13,1.64-0.67,1.7-1.69
		C395.81,607.42,395.77,606.38,395.77,605.35z"/>
	<path class="st0" d="M344.47,605.39c0,1.04,0.07,2.08-0.01,3.12c-0.16,2.02-1.31,3.02-3.5,3.15c-2.3,0.14-3.95-0.81-4.11-2.75
		c-0.2-2.38-0.19-4.8-0.01-7.18c0.15-1.95,1.74-2.89,4.07-2.8c2.19,0.09,3.38,1.09,3.54,3.1
		C344.54,603.14,344.47,604.27,344.47,605.39C344.47,605.39,344.47,605.39,344.47,605.39z M342.53,605.32c0-1.03,0.06-2.07-0.02-3.1
		c-0.08-1.11-0.78-1.75-1.87-1.79c-0.99-0.04-1.81,0.58-1.87,1.51c-0.14,2.21-0.15,4.45-0.01,6.66c0.06,1.06,1.08,1.67,2.07,1.53
		c0.98-0.13,1.62-0.7,1.68-1.71C342.58,607.39,342.53,606.35,342.53,605.32z"/>
	<path class="st0" d="M282.43,602.6c-0.97,0.3-1.51,0.1-1.8-0.79c-0.34-1.04-1.12-1.59-2.22-1.35c-1.2,0.26-1.63,1.19-1.63,2.34
		c-0.01,1.68-0.06,3.36,0.02,5.03c0.06,1.5,0.77,2.27,1.91,2.31c1.17,0.04,1.86-0.7,2-2.19c0.04-0.47,0.01-0.95,0.01-1.51
		c-0.87-0.25-1.68-0.49-2.85-0.83c1.63-1.41,3.05-0.75,4.71-0.9c0,1.45,0.11,2.78-0.03,4.09c-0.18,1.82-1.43,2.76-3.52,2.87
		c-2.19,0.11-3.84-0.76-4-2.58c-0.22-2.53-0.24-5.12,0.02-7.64c0.19-1.88,2.17-2.79,4.53-2.48
		C281.72,599.24,282.52,600.21,282.43,602.6z"/>
	<path class="st0" d="M236.18,611.21c-1.83,0.32-1.83,0.32-2.83-2.26c-1.18,0-2.43,0-3.62,0c-1.2,0.5-0.22,3.33-2.75,2.38
		c0-0.42-0.09-0.82,0.01-1.17c0.97-3.2,1.97-6.4,2.97-9.6c0.07-0.23,0.1-0.52,0.25-0.66c0.37-0.35,0.79-0.87,1.2-0.88
		c0.41,0,1.07,0.46,1.2,0.85C233.84,603.56,234.97,607.29,236.18,611.21z M231.7,603.01c-0.17-0.01-0.35-0.02-0.52-0.04
		c-0.39,1.37-0.78,2.74-1.21,4.24c1.14,0,1.89,0,2.93,0C232.46,605.68,232.08,604.34,231.7,603.01z"/>
	<path class="st0" d="M204.96,611.13c0.48-1.66,0.95-3.33,1.45-4.98c0.62-2.06,1.23-4.12,1.95-6.15c0.15-0.43,0.71-0.94,1.13-0.98
		c0.41-0.04,1.15,0.37,1.27,0.74c1.24,3.76,2.39,7.55,3.56,11.33c-1.67,0.53-1.67,0.53-2.9-2.17c-1.18,0-2.43,0-3.62,0
		C206.59,611.6,206.59,611.6,204.96,611.13z M208.09,607.14c1.13,0,1.99,0,3.06,0c-0.49-1.54-0.91-2.81-1.32-4.09
		c-0.17,0.02-0.34,0.03-0.51,0.05C208.94,604.4,208.54,605.7,208.09,607.14z"/>
	<path class="st0" d="M293.14,611.16c1.18-3.84,2.26-7.5,3.46-11.12c0.15-0.46,0.84-0.95,1.33-1.02c0.35-0.05,1.03,0.49,1.17,0.9
		c1.2,3.69,2.31,7.42,3.44,11.12c-1.65,0.61-1.65,0.61-2.84-2.11c-1.18,0-2.42,0-3.63,0C294.81,611.56,294.81,611.56,293.14,611.16z
		 M298.15,603.11c-0.19,0-0.38,0-0.57,0c-0.4,1.31-0.8,2.62-1.26,4.12c1.13,0,1.96,0,3.08,0
		C298.94,605.73,298.55,604.42,298.15,603.11z"/>
	<path class="st0" d="M363.11,599.13c1.18-0.32,1.72-0.02,1.72,0.93c0,2.87,0.09,5.76-0.1,8.62c-0.14,2.06-1.59,3.01-3.91,2.98
		c-2.2-0.03-3.67-0.96-3.79-2.86c-0.19-2.94-0.11-5.91-0.08-8.86c0.01-1.02,0.71-1.1,1.86-0.74c0,1.31,0,2.72,0,4.13
		c0,0.88,0,1.76,0,2.64c0,3.12,0.5,4.24,2.01,4.17c1.67-0.08,2.27-0.79,2.13-4.28c-0.06-1.6-0.02-3.2,0-4.79
		C362.96,600.43,363.05,599.81,363.11,599.13z"/>
	<path class="st0" d="M267.03,606.33c-0.91-0.18-1.59-0.31-2.29-0.45c0.56-1.39,0.73-1.43,4.29-0.94c0,0.87,0.03,1.8,0,2.72
		c-0.11,3.35-3.03,5.13-6.01,3.55c-0.73-0.39-1.53-1.38-1.59-2.16c-0.21-2.45-0.21-4.93-0.06-7.38c0.11-1.68,1.3-2.54,3.11-2.72
		c2.06-0.21,3.68,0.49,4.28,1.89c0.28,0.65,0.6,1.43-0.31,1.83c-0.68,0.3-1.17-0.02-1.43-0.78c-0.39-1.1-1.19-1.73-2.4-1.39
		c-1.21,0.34-1.47,1.37-1.5,2.45c-0.03,1.59-0.07,3.19,0.01,4.78c0.09,1.69,0.82,2.47,2.03,2.42c1.17-0.04,1.85-0.91,1.96-2.54
		C267.13,607.22,267.06,606.83,267.03,606.33z"/>
	<path class="st0" d="M317.58,611.37c0-4.19,0-8.16,0-12.39c1.68,0,3.26-0.13,4.81,0.03c2.06,0.22,2.93,1.53,2.87,3.95
		c-0.05,2.2-1,3.36-3.02,3.59c-0.85,0.1-1.72,0.02-2.87,0.02c0,1.38,0,2.56,0,3.73C319.37,611.53,318.76,611.79,317.58,611.37z
		 M319.52,600.46c0,1.62,0,3.09,0,4.6c1.41,0.14,2.86,0.46,3.51-0.96c0.35-0.76,0.32-1.97-0.06-2.72
		C322.27,599.99,320.85,600.36,319.52,600.46z"/>
	<path class="st0" d="M284.98,611.54c0-4.23,0-8.27,0-12.42c2.54,0,4.95,0,7.35,0c0.07,0.16,0.14,0.31,0.21,0.47
		c-0.35,0.26-0.68,0.71-1.04,0.73c-1.49,0.08-3,0.04-4.61,0.04c0,1.4,0,2.57,0,3.86c0.95,0.19,1.9,0.38,3,0.59
		c-0.61,1.71-2.11,0.71-3.01,1.46c0,1.15,0,2.4,0,3.8c1.89,0.12,3.71,0.25,5.98,0.4c-0.54,0.64-0.72,1.04-0.91,1.05
		C289.66,611.56,287.37,611.54,284.98,611.54z"/>
	<path class="st0" d="M244.7,598.96c-0.41,2.24-1.69,3.81-2.54,5.56c-0.86,1.78-1.84,3.5-2.95,5.59c2.04,0.09,3.78,0.17,5.85,0.26
		c-0.37,0.63-0.49,1.07-0.66,1.1c-2.5,0.36-5,0.25-7.95,0.06c1.69-3.96,3.88-7.26,5.5-10.8c-1.61-0.97-3.65,0.51-5.42-1.56
		C239.51,598.77,241.98,598.98,244.7,598.96z"/>
	<path class="st0" d="M369.03,605.25c0.05,1.03,0.06,2.07,0.16,3.1c0.09,0.98,0.65,1.62,1.65,1.76c0.99,0.14,1.7-0.25,2.07-1.2
		c0.11-0.3,0.16-0.7,0.38-0.86c0.28-0.21,0.75-0.37,1.05-0.27c0.28,0.1,0.53,0.53,0.63,0.86c0.08,0.27-0.05,0.63-0.16,0.92
		c-0.55,1.46-2.16,2.26-4.18,2.08c-1.9-0.17-3.13-0.95-3.25-2.58c-0.18-2.53-0.18-5.1,0.02-7.63c0.13-1.64,1.55-2.45,3.55-2.51
		c2.01-0.05,3.47,0.69,3.85,2.15c0.13,0.48-0.04,1.34-0.38,1.59c-0.58,0.41-1.15,0.09-1.39-0.72c-0.34-1.13-1.13-1.77-2.35-1.49
		c-1.22,0.28-1.53,1.29-1.58,2.39c-0.03,0.8-0.01,1.59-0.01,2.39C369.07,605.25,369.05,605.25,369.03,605.25z"/>
	<path class="st0" d="M376,599.07c2.73,0,5.32,0,7.91,0c0.16,1.41,0.16,1.41-2.68,1.79c-0.06,0.62-0.18,1.3-0.19,1.98
		c-0.03,2.46-0.01,4.93-0.02,7.39c0,0.64,0.01,1.35-0.92,1.34c-0.88-0.01-0.97-0.65-0.97-1.33c0-2.23-0.01-4.45-0.01-6.68
		c0-0.86,0-1.72,0-2.28C378.18,600.09,375.99,601.47,376,599.07z"/>
	<path class="st0" d="M246.58,611.39c0-4.16,0-8.13,0-12.22c1.06-0.33,1.79-0.27,1.79,1.01c0.02,3.43,0.02,6.86,0,10.3
		C248.36,611.64,247.67,611.73,246.58,611.39z"/>
	<path class="st0" d="M387.49,611.4c-1.15,0.34-1.76,0.13-1.76-1c0-3.43-0.01-6.86,0.02-10.3c0.01-1.09,0.65-1.34,1.74-0.93
		C387.49,603.18,387.49,607.22,387.49,611.4z"/>
	<path class="st0" d="M370.68,428.35c-3.79-0.06-7.46,0.4-11.07-0.29c-4.46-0.84-7.61-5.04-7.94-10.2
		c-0.08-1.24-0.01-2.49-0.01-4.25c-0.7,0.65-0.99,0.87-1.22,1.14c-7.18,8.51-16.41,13.63-27.15,16c-14.9,3.29-29.73,2.84-44.16-2.26
		c-19.23-6.8-31.17-20.48-36.4-40.1c-1.74-6.52-2.45-13.18-2.45-19.92c0-7.59-0.08-15.18,0.07-22.77c0.16-8.69,1.7-17.16,5.01-25.23
		c6.53-15.96,18.07-26.77,34.35-32.18c17.19-5.71,34.64-5.76,51.78,0.14c20.21,6.95,32.4,21.4,37.35,42.07
		c1.52,6.32,1.99,12.76,1.98,19.26c-0.02,25.33-0.01,50.66-0.01,75.98C370.8,426.52,370.73,427.3,370.68,428.35z M310.74,329.29
		c1.3,2.97,2.87,6.03,3.97,9.24c1.22,3.54,0.22,6.87-2.34,9.51c-1.3,1.34-2.97,2.43-4.66,3.27c-5.99,2.97-11.52,6.56-16.15,11.43
		c-6.44,6.77-10.26,14.74-11.09,24.11c-0.69,7.75,0.9,15.08,3.61,22.26c0.59,1.56,1.51,2.42,3.11,2.94
		c12.18,3.93,24.38,4.07,36.48-0.08c11.98-4.11,20.15-12.3,24.66-24.14c2.24-5.89,3.27-12.01,3.3-18.29
		c0.03-7.27-0.01-14.55,0.01-21.82c0.02-4.42-0.47-8.78-1.55-13.05c-3.77-14.91-12.72-25.25-27.46-30.05
		c-11.32-3.69-22.85-3.68-34.2-0.07c-12.5,3.97-21.11,12.24-25.75,24.56c-2.04,5.43-3.11,11.08-3.19,16.87
		c-0.11,7.67-0.09,15.35-0.02,23.02c0.02,2.71,0.25,5.43,0.57,8.12c0.29,2.36,0.64,4.73,1.7,6.93c0.4-1.68,0.57-3.34,0.85-4.99
		c2.26-13.48,8.86-24.48,19.04-33.46c8.4-7.41,18.4-12.01,28.54-16.36C310.24,329.2,310.33,329.24,310.74,329.29z"/>
	<path class="st0" d="M240.38,284.79c0-5.52-0.18-10.78,0.04-16.02c0.34-7.95,1.84-15.71,4.87-23.1c7-17.12,19.66-27.96,37.21-33.31
		c9.37-2.85,18.98-3.45,28.69-2.95c7.63,0.39,15.07,1.82,22.19,4.59c18.39,7.16,29.88,20.49,34.96,39.44
		c1.62,6.04,2.3,12.22,2.45,18.48c0.19,8.55,0.53,17.09,0.79,25.64c0.04,1.35,0.01,2.71,0.01,4.22c-0.49,0.08-1.01,0.22-1.54,0.23
		c-2.32,0.03-4.64,0.03-6.95,0.01c-3.77-0.03-6.56-1.76-8.46-4.96c-1.24-2.1-1.93-4.4-2.07-6.82c-0.35-6.14-0.7-12.28-0.91-18.42
		c-0.21-6.2-1.14-12.24-3.39-18.04c-4.9-12.63-13.92-20.87-26.9-24.57c-10.52-3-21.21-3.01-31.7,0.04
		c-15.49,4.5-24.91,15-28.64,30.56c-0.96,4-1.07,8.21-1.55,12.33c-0.18,1.5-0.14,3.05-0.46,4.51c-1.06,4.85-4.98,8.02-9.94,8.12
		C246.27,284.84,243.48,284.79,240.38,284.79z"/>
	<path class="st0" d="M370.7,434.43c0,5.59,0.2,10.86-0.04,16.11c-0.42,9.18-2.34,18.05-6.34,26.39
		c-7.31,15.24-19.37,24.91-35.37,29.8c-9.58,2.93-19.4,3.7-29.38,3.06c-7.55-0.48-14.9-1.86-21.94-4.62
		c-19.12-7.49-30.64-21.54-35.36-41.36c-1.41-5.93-1.99-11.97-1.98-18.07c0.01-3.67,0-7.33,0-11.33c3.88,0.13,7.62-0.47,11.29,0.37
		c4.66,1.08,7.73,5.21,7.82,10.51c0.09,4.73,0.45,9.41,1.54,14.02c4.24,17.93,17.16,29.64,35.89,32.15
		c7.82,1.05,15.65,0.93,23.31-1.14c16.14-4.35,26.01-14.88,30.01-31.02c1.04-4.2,1.53-8.49,1.49-12.82
		c-0.02-2.18,0.26-4.31,1.27-6.28c1.87-3.66,4.84-5.67,8.97-5.79C364.73,434.37,367.6,434.43,370.7,434.43z"/>
</g>
</svg>
