<?xml version="1.0" ?><svg xmlns="http://www.w3.org/2000/svg" id="Layer_4" data-name="Layer 4" viewBox="0 0 64 64"><defs><style>
      .cls-1 {
        fill: none;
        stroke: #000;
        stroke-linecap: round;
        stroke-linejoin: round;
        stroke-width: 3px;
      }
    </style></defs><path d="m24.55,17.81s1.22-3.15,4.27-3.15c2.53,0,4.27,2.02,4.27,4.46,0,3.91-4.65,5.11-7.95,10.04-.28.43-.92.43-1.2,0-3.29-4.93-7.95-6.13-7.95-10.04,0-2.45,1.74-4.46,4.27-4.46,3.06,0,4.27,3.15,4.27,3.15Z"/><path d="m51.78,11c.67,0,1.22.55,1.22,1.22v39.56c0,.67-.55,1.22-1.22,1.22H12.22c-.67,0-1.22-.55-1.22-1.22V12.22c0-.67.55-1.22,1.22-1.22h39.56m0-3H12.22c-2.33,0-4.22,1.89-4.22,4.22v39.56c0,2.33,1.89,4.22,4.22,4.22h39.56c2.33,0,4.22-1.89,4.22-4.22V12.22c0-2.33-1.89-4.22-4.22-4.22h0Z"/><path class="cls-1" d="m17.22,54.62l14.45-20.95c1.6-2.31,4.85-2.72,6.97-.87l5.81,5.09c1.96,1.71,4.93,1.51,6.64-.45l3.52-4.04"/></svg>